<svg width="48" height="48" viewBox="0 0 48 48" fill="none" xmlns="http://www.w3.org/2000/svg">
<g clip-path="url(#clip0_7638_3799)">
<path d="M6.34895 0H4V47.9998H6.34895V0Z" fill="#22282B"/>
<path d="M14.7669 47.9998H12.418C12.418 46.847 13.2321 44.7896 14.5732 41.5378C15.4077 39.5155 16.5501 36.7465 16.5501 35.9824C16.5501 35.2197 15.4076 32.4608 14.5739 30.4475C13.2321 27.2066 12.418 25.1556 12.418 24.0022C12.418 22.8488 13.2321 20.7945 14.5732 17.5472C15.4077 15.5287 16.5501 12.7648 16.5501 12.0008C16.5501 11.2374 15.4077 8.47342 14.5732 6.45497C13.2321 3.20703 12.418 1.15341 12.418 0H14.7669C14.7669 0.763396 15.9093 3.52735 16.7431 5.54644C18.0849 8.79374 18.899 10.848 18.899 12.0008C18.899 13.1542 18.0849 15.2084 16.7431 18.4557C15.9093 20.4742 14.7669 23.2381 14.7669 24.0022C14.7669 24.7649 15.9093 27.5237 16.7425 29.5371C18.0849 32.778 18.899 34.829 18.899 35.9824C18.899 37.1352 18.0849 39.1933 16.7431 42.445C15.9093 44.4667 14.7669 47.2358 14.7669 47.9998Z" fill="#1D7028"/>
<path d="M23.1868 47.9998H20.8379C20.8379 45.4967 23.1208 43.2839 25.3294 41.1433C27.1837 39.3468 29.1008 37.4888 29.1008 35.992C29.1008 34.4959 27.1843 32.6424 25.33 30.8503C23.1214 28.7142 20.8379 26.5059 20.8379 24.0022C20.8379 21.4984 23.1208 19.2875 25.3294 17.1489C27.1837 15.3536 29.1008 13.4975 29.1008 12.0008C29.1008 10.504 27.1837 8.64796 25.3294 6.85328C23.1208 4.71462 20.8379 2.50373 20.8379 0H23.1868C23.1868 1.49674 25.1046 3.3528 26.9582 5.14812C29.1668 7.28614 31.4503 9.49704 31.4503 12.0008C31.4503 14.5045 29.1668 16.7154 26.9582 18.854C25.1046 20.6494 23.1868 22.5054 23.1868 24.0022C23.1868 25.4983 25.104 27.3511 26.9576 29.1439C29.1662 31.28 31.4503 33.4883 31.4503 35.992C31.4503 38.4951 29.1668 40.7079 26.9582 42.8479C25.1046 44.6451 23.1868 46.5031 23.1868 47.9998Z" fill="#17B726"/>
<path d="M31.6048 47.9998H29.2559C29.2559 44.2564 32.9021 42.4917 36.1192 40.9343C39.4606 39.3167 41.6508 38.1 41.6508 36.001C41.6508 33.902 39.4606 32.6853 36.1185 31.0677C32.9021 29.5102 29.2559 27.7456 29.2559 24.0022C29.2559 20.2574 32.9021 18.4928 36.1192 16.9353C39.4606 15.3177 41.6508 14.1004 41.6508 12.0008C41.6508 9.90111 39.46 8.68377 36.1185 7.06619C32.9015 5.50872 29.2559 3.74344 29.2559 0H31.6048C31.6048 2.09901 33.795 3.31636 37.1365 4.93457C40.3535 6.49141 44.0004 8.25669 44.0004 12.0008C44.0004 15.7448 40.3541 17.5101 37.1371 19.0669C33.7956 20.6845 31.6048 21.9025 31.6048 24.0022C31.6048 26.1012 33.795 27.3179 37.1371 28.9361C40.3535 30.4929 44.0004 32.2575 44.0004 36.001C44.0004 39.7444 40.3541 41.5097 37.1371 43.0659C33.795 44.6835 31.6048 45.9008 31.6048 47.9998Z" fill="#12FF23"/>
</g>
<defs>
<clipPath id="clip0_7638_3799">
<rect width="40" height="48" fill="white" transform="translate(4)"/>
</clipPath>
</defs>
</svg>
